<?xml version="1.0" standalone="no"?>
<!DOCTYPE svg PUBLIC "-//W3C//DTD SVG 20010904//EN"
 "http://www.w3.org/TR/2001/REC-SVG-20010904/DTD/svg10.dtd">
<svg version="1.0" xmlns="http://www.w3.org/2000/svg"
 width="512.000000pt" height="512.000000pt" viewBox="0 0 512.000000 512.000000"
 preserveAspectRatio="xMidYMid meet">

<g transform="translate(0.000000,512.000000) scale(0.100000,-0.100000)"
fill="#000000" stroke="none">
<path d="M4077 5109 c-21 -5 -50 -15 -65 -23 -15 -8 -250 -238 -522 -510
l-495 -496 -1162 0 -1163 0 0 384 c0 354 -1 386 -18 406 -24 30 -88 36 -182
16 -218 -45 -399 -218 -455 -433 -23 -87 -23 -3369 0 -3458 48 -188 195 -343
385 -408 l65 -22 1189 -3 1190 -3 -217 -217 c-202 -203 -217 -221 -217 -254 0
-20 8 -46 19 -59 l19 -24 1315 0 c1279 0 1315 1 1336 19 l21 19 0 1319 c0
1305 0 1318 -20 1338 -13 13 -33 20 -57 20 -33 0 -47 -11 -155 -117 l-118
-117 0 772 0 773 -25 24 -24 25 -298 0 -298 0 217 218 c119 119 224 233 234
252 26 51 24 153 -3 205 -29 54 -299 320 -343 338 -50 21 -109 27 -153 16z
m232 -303 c158 -158 157 -155 43 -269 l-82 -82 -167 167 -168 168 70 71 c83
85 118 103 155 84 14 -8 81 -70 149 -139z m-3799 -1211 c0 -832 3 -1141 11
-1159 17 -36 69 -52 107 -32 16 8 32 23 36 31 3 9 6 347 6 751 l0 734 1082 0
1082 0 -212 -213 c-199 -200 -212 -215 -212 -250 0 -49 28 -77 77 -77 36 0 57
19 563 525 l525 525 168 -168 167 -167 -773 -773 -772 -772 -167 167 -168 168
155 156 c144 144 155 158 155 192 0 49 -28 77 -77 77 -34 0 -49 -12 -229 -191
l-192 -191 -128 -364 -128 -364 -141 0 c-130 0 -143 -2 -160 -20 -26 -29 -25
-85 3 -113 l23 -22 1075 0 1076 0 19 24 c22 27 25 79 5 107 -14 18 -37 19
-768 24 l-753 5 215 74 215 75 785 783 785 783 323 0 322 0 0 -797 0 -798
-545 -545 c-329 -329 -545 -553 -546 -565 -3 -43 3 -61 27 -83 55 -49 27 -74
746 645 l668 668 0 -323 0 -322 -80 0 c-73 0 -83 -3 -105 -25 -27 -26 -31 -51
-14 -88 16 -35 49 -47 129 -47 l70 0 0 -104 0 -104 -81 -4 c-74 -3 -83 -6
-105 -31 -29 -34 -31 -66 -3 -101 19 -24 26 -26 105 -26 l84 0 0 -110 0 -110
-70 0 c-38 0 -80 -5 -94 -11 -50 -23 -57 -103 -13 -134 15 -10 47 -15 99 -15
l78 0 0 -110 0 -110 -80 0 c-73 0 -83 -3 -105 -25 -27 -26 -31 -51 -14 -88 16
-35 49 -47 129 -47 l70 0 0 -175 0 -175 -1142 0 -1143 0 388 388 c369 369 387
389 387 424 0 44 -36 78 -83 78 -25 0 -55 -26 -197 -165 l-167 -166 -1254 4
c-1377 3 -1288 -1 -1390 62 -62 38 -97 72 -134 130 -51 79 -68 145 -63 236 12
200 171 362 388 393 128 18 120 -5 120 354 0 300 0 306 -22 329 -30 32 -81 31
-113 -2 l-25 -24 0 -249 0 -249 -66 -16 c-82 -21 -153 -56 -227 -113 l-57 -45
0 1421 c0 1582 -5 1473 69 1587 42 65 101 118 171 153 41 21 83 37 103 39 4 1
7 -510 7 -1134z m3480 910 l165 -165 -65 -65 -65 -65 -167 167 -168 168 62 62
c34 35 65 63 68 63 3 0 79 -74 170 -165z m-1905 -1905 c71 -71 127 -132 124
-134 -3 -3 -48 -20 -101 -39 l-97 -34 -68 69 -68 68 35 100 c19 55 37 100 40
100 3 0 64 -58 135 -130z"/>
<path d="M4465 1509 c-32 -18 -835 -821 -851 -851 -19 -37 -18 -61 7 -92 l20
-26 448 0 448 0 21 23 c22 23 22 25 22 464 0 405 -1 442 -17 462 -22 25 -71
35 -98 20z m-45 -539 l0 -270 -272 0 -273 0 270 270 c148 149 271 270 272 270
2 0 3 -121 3 -270z"/>
</g>
</svg>
